<svg width="512" height="512" viewBox="0 0 512 512" fill="none" xmlns="http://www.w3.org/2000/svg">
  <defs>
    <linearGradient id="bgGradient" x1="0%" y1="0%" x2="100%" y2="100%">
      <stop offset="0%" style="stop-color:#e85d27"/>
      <stop offset="100%" style="stop-color:#f39c12"/>
    </linearGradient>
    <linearGradient id="arrowGradient" x1="0%" y1="0%" x2="100%" y2="100%">
      <stop offset="0%" style="stop-color:#ffffff"/>
      <stop offset="100%" style="stop-color:#f5f5f5"/>
    </linearGradient>
  </defs>

  <!-- Background rounded square -->
  <rect width="512" height="512" rx="102" fill="url(#bgGradient)"/>

  <!-- Subtle inner shadow/glow -->
  <rect x="20" y="20" width="472" height="472" rx="90" fill="none" stroke="rgba(255,255,255,0.1)" stroke-width="2"/>

  <!-- Up arrow symbol representing "TradeUp" -->
  <g transform="translate(256, 256)">
    <!-- Main upward arrow -->
    <path d="M0 -120 L80 20 L40 20 L40 100 L-40 100 L-40 20 L-80 20 Z"
          fill="url(#arrowGradient)"
          transform="translate(0, -10)"/>

    <!-- Circular arrows around it (trade/exchange symbol) -->
    <g stroke="white" stroke-width="16" fill="none" stroke-linecap="round">
      <!-- Left curved arrow -->
      <path d="M-100 60 A 100 100 0 0 1 -60 -80" opacity="0.9"/>
      <polygon points="-75,-85 -60,-60 -45,-85" fill="white" opacity="0.9"/>

      <!-- Right curved arrow -->
      <path d="M100 60 A 100 100 0 0 0 60 -80" opacity="0.9"/>
      <polygon points="75,-85 60,-60 45,-85" fill="white" opacity="0.9"/>
    </g>
  </g>

  <!-- Bottom accent line -->
  <rect x="140" y="420" width="232" height="8" rx="4" fill="rgba(255,255,255,0.3)"/>
</svg>
